<svg id="Layer_1" data-name="Layer 1" xmlns="http://www.w3.org/2000/svg" viewBox="0 0 27.73 18.9"><defs><style>.cls-1{fill:#fff;}</style></defs><path class="cls-1" d="M0,18V1A1,1,0,0,1,.94,0H5.15a1,1,0,0,1,.79.37,1,1,0,0,1,.11.87L1.83,13.85V18a.92.92,0,0,1-.89.92h0A.92.92,0,0,1,0,18ZM1.83,1.89v6l2-6Z"/><path class="cls-1" d="M27.72,1V18a.95.95,0,0,1-1.89,0V4.92L19.11,18.39a.92.92,0,0,1-.83.51.9.9,0,0,1-.44-.11.82.82,0,0,1-.4-.4L10.72,4.92V18a.95.95,0,0,1-1.89,0V1A1,1,0,0,1,9.77,0H21.14a.65.65,0,0,1,.37.1A.92.92,0,0,1,22,1.33L19.33,6.62l1.78,3.56L25.94.49A.94.94,0,0,1,27.72,1ZM20.06,12.29,14.88,1.89h-3.6l7,14ZM18.28,4.51,19.6,1.89H17Z"/></svg>