<?xml version="1.0" encoding="UTF-8"?>
<svg xmlns="http://www.w3.org/2000/svg" viewBox="0 0 230 30">
	<defs><style>#a, #b{fill:#fff}</style></defs>
	<g id="a">
		<path d="M1.55,29.99H23.94c.82-.02,1.47-.7,1.46-1.52,0-.46-.23-.89-.6-1.16l-15.55-11.12L22.75,2.67c.53-.63,.46-1.56-.17-2.1-.56-.47-1.38-.47-1.93,0L3.02,18.2v-4.76L13.74,2.73c.62-.54,.69-1.47,.16-2.1s-1.47-.69-2.1-.16c-.06,.05-.11,.11-.16,.16L2.97,9.3V1.63C3.04,.81,2.45,.08,1.63,0S.08,.53,0,1.35C0,1.44,0,1.53,0,1.63V28.51c0,.81,.66,1.47,1.47,1.47h.01m1.47-7.58l4.1-4.02,12.19,8.71H3.02l-.05-4.69Z"/>
		<path d="M55.65,.14c-.82,0-1.49,.67-1.49,1.49h0V24.68l-5.02-5.48V1.63c0-.82-.67-1.49-1.49-1.49s-1.49,.67-1.49,1.49V15.96L32.1,.62c-.56-.6-1.5-.63-2.1-.07-.3,.28-.47,.67-.47,1.07V15.02c-.03,8.23,6.62,14.93,14.86,14.96,.02,0,.04,0,.07,0h11.2c.38,0,.75-.15,1.03-.42,.28-.28,.43-.66,.44-1.06V1.63c0-.82-.66-1.48-1.47-1.49m-11.2,26.89c-6.6-.01-11.95-5.36-11.96-11.96V5.45l19.79,21.58h-7.82Z"/>
		<path d="M89.37,27.55c1.54-1.53,2.4-3.61,2.4-5.79h0c0-2.17-.86-4.26-2.4-5.79h0c-.25-.25-1.07-.91-2.25-1.82h0c1.54-1.53,2.4-3.62,2.4-5.79h0c0-4.52-3.67-8.19-8.2-8.2h-13.4c-.58,.02-1.1,.36-1.34,.88-.28,.62-.1,1.36,.44,1.78,0,0,11.08,8.18,15.47,11.49l-2.68,2.24c-5.36-4.02-10.98-8.13-11.04-8.17-.67-.48-1.61-.32-2.09,.35-.18,.25-.27,.54-.28,.84V28.51c-.02,.4,.15,.79,.46,1.06,.28,.26,.65,.41,1.03,.42h15.69c2.17-.02,4.25-.9,5.79-2.44M72.45,3.11h8.93c1.39,0,2.72,.55,3.7,1.53,2.04,2.04,2.04,5.35,0,7.39l-.29,.27c-3.74-2.81-8.87-6.63-12.34-9.19m-3.03,9.38c2.02,1.5,5.09,3.76,8.04,6.01-2.57,2.18-5.48,4.62-8.04,6.82V12.49Zm15.49,3.64c1.34,1,2.2,1.7,2.41,1.93,.98,.97,1.54,2.3,1.53,3.68h0c0,1.38-.54,2.71-1.53,3.68-.97,.99-2.3,1.56-3.68,1.58h-11.67c3.71-3.11,9.62-8.04,12.89-10.89"/>
		<path d="M154.62,.14h-22.4c-.82,0-1.49,.67-1.49,1.49h0V28.51c0,.82,.67,1.49,1.49,1.49s1.49-.67,1.49-1.49V5.74l5.04,6.08V28.51c0,.82,.67,1.49,1.49,1.49s1.49-.67,1.49-1.49V15.35l11.77,14.13,.09,.09c.39,.39,.97,.52,1.5,.35,.58-.2,.98-.73,1.02-1.34V1.63c0-.82-.67-1.49-1.49-1.49h0m-9.5,14.65l-9.71-11.68h9.73V14.8Zm8.02,9.6l-5.04-6.04V3.11h5.04V24.4Z"/>
		<path d="M122.72,1.63c0-.82-.67-1.49-1.49-1.49h-20.09c-.39,0-.75,.16-1.03,.43-.3,.27-.47,.65-.46,1.06V28.51c-.02,.4,.15,.79,.46,1.06,.28,.26,.65,.41,1.03,.42h20.09c.82,.08,1.54-.52,1.62-1.34,.08-.82-.52-1.54-1.34-1.62-.09,0-.19,0-.28,0h-15.7l14.37-10.78s.09-.06,.12-.11c.48-.44,.6-1.15,.29-1.73-.22-.44-.65-.75-1.14-.8h-6.22l-8.72-10.49h16.99c.82,0,1.49-.67,1.49-1.49h0m-8.18,14.92l-11.98,8.99v-8.99h11.98Zm-5.36-2.96h-6.62V5.73l6.62,7.86Z"/>
	</g>
	<g id="b">
		<path d="M186.13,28.54V1.64c0-.84,.65-1.53,1.49-1.58h6.66c.48,0,.94,.21,1.25,.59,.27,.41,.33,.92,.17,1.38l-6.68,19.95v6.57c0,.79-.62,1.43-1.41,1.46h0c-.8,.02-1.47-.62-1.49-1.42,0-.01,0-.02,0-.03Zm2.9-25.49V12.55l3.16-9.49h-3.16Z"/>
		<path d="M229.99,1.64V28.54c-.09,.83-.82,1.43-1.65,1.34-.71-.07-1.27-.63-1.34-1.34V7.85l-10.63,21.31c-.25,.5-.76,.81-1.31,.81-.24,0-.48-.06-.7-.17-.28-.13-.5-.35-.63-.63l-10.63-21.31V28.54c-.09,.83-.82,1.43-1.65,1.34-.71-.07-1.27-.63-1.34-1.34V1.64c0-.84,.65-1.53,1.49-1.58h17.99c.21,0,.41,.05,.59,.16,.74,.3,1.1,1.15,.8,1.9l-.02,.05-4.22,8.37,2.82,5.63,7.64-15.33c.36-.74,1.25-1.05,1.99-.69,.56,.27,.89,.87,.83,1.49Zm-12.12,17.86l-8.2-16.46h-5.7l11.08,22.15,2.82-5.7Zm-2.82-12.31l2.09-4.15h-4.11l2.03,4.15Z"/>
	</g>
</svg>