<?xml version="1.0" encoding="utf-8"?>
<!-- Generator: Adobe Illustrator 26.1.0, SVG Export Plug-In . SVG Version: 6.00 Build 0)  -->
<svg version="1.1" xmlns="http://www.w3.org/2000/svg" xmlns:xlink="http://www.w3.org/1999/xlink" x="0px" y="0px"
	 viewBox="0 0 250 50" style="enable-background:new 0 0 250 50;" xml:space="preserve">
<g id="Layer_1">
	<path d="M11.5,40h22.4c0.8,0,1.5-0.7,1.5-1.5c0-0.5-0.2-0.9-0.6-1.2L19.2,26.2l13.5-13.5c0.5-0.6,0.5-1.6-0.2-2.1
		c-0.6-0.5-1.4-0.5-1.9,0L13,28.2v-4.8l10.7-10.7c0.6-0.5,0.7-1.5,0.2-2.1c-0.5-0.6-1.5-0.7-2.1-0.2c-0.1,0.1-0.1,0.1-0.2,0.2
		L13,19.3v-7.7c0.1-0.8-0.5-1.5-1.3-1.6c-0.8-0.1-1.5,0.5-1.6,1.3c0,0.1,0,0.2,0,0.3v26.9C10,39.3,10.7,40,11.5,40
		C11.5,40,11.5,40,11.5,40 M13,32.4l4.1-4l12.2,8.7H13L13,32.4z"/>
	<path d="M65.7,10.1c-0.8,0-1.5,0.7-1.5,1.5c0,0,0,0,0,0v23.1l-5-5.5V11.6c0-0.8-0.7-1.5-1.5-1.5c-0.8,0-1.5,0.7-1.5,1.5V26
		L42.1,10.6C41.5,10,40.6,10,40,10.6c-0.3,0.3-0.5,0.7-0.5,1.1V25c0,8.2,6.6,14.9,14.9,15c0,0,0,0,0.1,0h11.2c0.4,0,0.8-0.1,1-0.4
		c0.3-0.3,0.4-0.7,0.4-1.1V11.6C67.1,10.8,66.5,10.1,65.7,10.1 M54.5,37c-6.6,0-11.9-5.4-12-12v-9.6L62.3,37H54.5z"/>
	<path d="M99.4,37.5c1.5-1.5,2.4-3.6,2.4-5.8l0,0c0-2.2-0.9-4.3-2.4-5.8l0,0c-0.3-0.3-1.1-0.9-2.3-1.8l0,0c1.5-1.5,2.4-3.6,2.4-5.8
		l0,0c0-4.5-3.7-8.2-8.2-8.2H77.9c-0.6,0-1.1,0.4-1.3,0.9c-0.3,0.6-0.1,1.4,0.4,1.8c0,0,11.1,8.2,15.5,11.5l-2.7,2.2
		c-5.4-4-11-8.1-11-8.2c-0.7-0.5-1.6-0.3-2.1,0.4c-0.2,0.2-0.3,0.5-0.3,0.8v18.9c0,0.4,0.2,0.8,0.5,1.1c0.3,0.3,0.6,0.4,1,0.4h15.7
		C95.8,40,97.8,39.1,99.4,37.5 M82.5,13.1h8.9c1.4,0,2.7,0.5,3.7,1.5c2,2,2,5.4,0,7.4l-0.3,0.3C91.1,19.5,85.9,15.7,82.5,13.1
		 M79.4,22.5c2,1.5,5.1,3.8,8,6c-2.6,2.2-5.5,4.6-8,6.8V22.5z M94.9,26.1c1.3,1,2.2,1.7,2.4,1.9c1,1,1.5,2.3,1.5,3.7l0,0
		c0,1.4-0.5,2.7-1.5,3.7c-1,1-2.3,1.6-3.7,1.6H82C85.7,33.9,91.6,29,94.9,26.1"/>
	<path d="M164.6,10.1h-22.4c-0.8,0-1.5,0.7-1.5,1.5c0,0,0,0,0,0v26.9c0,0.8,0.7,1.5,1.5,1.5c0.8,0,1.5-0.7,1.5-1.5V15.7l5,6.1v16.7
		c0,0.8,0.7,1.5,1.5,1.5s1.5-0.7,1.5-1.5V25.3l11.8,14.1l0.1,0.1c0.4,0.4,1,0.5,1.5,0.3c0.6-0.2,1-0.7,1-1.3v-27
		C166.1,10.8,165.4,10.1,164.6,10.1L164.6,10.1 M155.1,24.8l-9.7-11.7h9.7L155.1,24.8z M163.2,34.4l-5-6V13.1h5V34.4z"/>
	<path d="M132.7,11.6c0-0.8-0.7-1.5-1.5-1.5l0,0h-20.1c-0.4,0-0.8,0.2-1,0.4c-0.3,0.3-0.5,0.7-0.5,1.1v26.9c0,0.4,0.2,0.8,0.5,1.1
		c0.3,0.3,0.6,0.4,1,0.4h20.1c0.8,0.1,1.5-0.5,1.6-1.3c0.1-0.8-0.5-1.5-1.3-1.6c-0.1,0-0.2,0-0.3,0h-15.7l14.4-10.8
		c0,0,0.1-0.1,0.1-0.1c0.5-0.4,0.6-1.2,0.3-1.7c-0.2-0.4-0.6-0.7-1.1-0.8H123l-8.7-10.5h17C132.1,13.1,132.7,12.4,132.7,11.6
		C132.7,11.6,132.7,11.6,132.7,11.6 M124.5,26.6l-12,9v-9H124.5z M119.2,23.6h-6.6v-7.9L119.2,23.6z"/>
</g>
<g id="Layer_2">
	<path d="M186.5,43.1V7.2c0-1.1,0.9-2,2-2.1h8.9c0.6,0,1.3,0.3,1.7,0.8c0.4,0.5,0.4,1.2,0.2,1.8l-8.9,26.6v8.8c0,1-0.8,1.9-1.9,1.9
		l0,0C187.4,45,186.5,44.2,186.5,43.1C186.5,43.1,186.5,43.1,186.5,43.1z M190.4,9.1v12.7l4.2-12.7H190.4z"/>
	<path d="M245,7.2v35.9c-0.1,1.1-1.1,1.9-2.2,1.8c-0.9-0.1-1.7-0.8-1.8-1.8V15.5l-14.2,28.4c-0.3,0.7-1,1.1-1.8,1.1
		c-0.3,0-0.6-0.1-0.9-0.2c-0.4-0.2-0.7-0.5-0.8-0.8l-14.2-28.4v27.6c-0.1,1.1-1.1,1.9-2.2,1.8c-0.9-0.1-1.7-0.8-1.8-1.8V7.2
		c0-1.1,0.9-2,2-2.1h24c0.3,0,0.5,0.1,0.8,0.2c1,0.4,1.5,1.5,1.1,2.5c0,0,0,0,0,0.1L227.3,19l3.8,7.5l10.2-20.4
		c0.5-1,1.7-1.4,2.7-0.9C244.6,5.6,245.1,6.4,245,7.2z M228.8,31L217.9,9.1h-7.6l14.8,29.5L228.8,31z M225.1,14.6l2.8-5.5h-5.5
		L225.1,14.6z"/>
</g>
</svg>
