<?xml version="1.0" encoding="UTF-8"?>
<svg xmlns="http://www.w3.org/2000/svg" viewBox="0 0 235 40">
<defs><style>#a, #b{fill:#fff}</style></defs>
<g id="a">
	<path d="M1.55,34.99H23.94c.82-.02,1.47-.7,1.46-1.52,0-.46-.23-.89-.6-1.16l-15.55-11.12L22.75,7.67c.53-.63,.46-1.56-.17-2.1-.56-.47-1.38-.47-1.93,0L3.02,23.2v-4.76L13.74,7.73c.62-.54,.69-1.47,.16-2.1s-1.47-.69-2.1-.16c-.06,.05-.11,.11-.16,.16L2.97,14.3V6.63c.08-.82-.52-1.54-1.34-1.62S.08,5.53,0,6.35c0,.09,0,.19,0,.28v26.89c0,.81,.66,1.47,1.47,1.47h.01m1.47-7.58l4.1-4.02,12.19,8.71H3.02l-.05-4.69Z"/>
	<path d="M55.65,5.14c-.82,0-1.49,.67-1.49,1.49h0V29.68l-5.02-5.48V6.63c0-.82-.67-1.49-1.49-1.49s-1.49,.67-1.49,1.49v14.33l-14.07-15.34c-.56-.6-1.5-.63-2.1-.07-.3,.28-.47,.67-.47,1.07v13.4c-.03,8.23,6.62,14.93,14.86,14.96,.02,0,.04,0,.07,0h11.2c.38,0,.75-.15,1.03-.42,.28-.28,.43-.66,.44-1.06V6.63c0-.82-.66-1.48-1.47-1.49m-11.2,26.89c-6.6-.01-11.95-5.36-11.96-11.96V10.45l19.79,21.58h-7.82Z"/>
	<path d="M89.37,32.55c1.54-1.53,2.4-3.61,2.4-5.79h0c0-2.17-.86-4.26-2.4-5.79h0c-.25-.25-1.07-.91-2.25-1.82h0c1.54-1.53,2.4-3.62,2.4-5.79h0c0-4.52-3.67-8.19-8.2-8.2h-13.4c-.58,.02-1.1,.36-1.34,.88-.28,.62-.1,1.36,.44,1.78,0,0,11.08,8.18,15.47,11.49l-2.68,2.24c-5.36-4.02-10.98-8.13-11.04-8.17-.67-.48-1.61-.32-2.09,.35-.18,.25-.27,.54-.28,.84v18.93c-.02,.4,.15,.79,.46,1.06,.28,.26,.65,.41,1.03,.42h15.69c2.17-.02,4.25-.9,5.79-2.44m-16.92-24.43h8.93c1.39,0,2.72,.55,3.7,1.53,2.04,2.04,2.04,5.35,0,7.39l-.29,.27c-3.74-2.81-8.87-6.63-12.34-9.19m-3.03,9.38c2.02,1.5,5.09,3.76,8.04,6.01-2.57,2.18-5.48,4.62-8.04,6.82v-12.83Zm15.49,3.64c1.34,1,2.2,1.7,2.41,1.93,.98,.97,1.54,2.3,1.53,3.68h0c0,1.38-.54,2.71-1.53,3.68-.97,.99-2.3,1.56-3.68,1.58h-11.67c3.71-3.11,9.62-8.04,12.89-10.89"/>
	<path d="M154.62,5.14h-22.4c-.82,0-1.49,.67-1.49,1.49h0v26.89c0,.82,.67,1.49,1.49,1.49s1.49-.67,1.49-1.49V10.74l5.04,6.08v16.69c0,.82,.67,1.49,1.49,1.49s1.49-.67,1.49-1.49v-13.17l11.77,14.13,.09,.09c.39,.39,.97,.52,1.5,.35,.58-.2,.98-.73,1.02-1.34V6.63c0-.82-.67-1.49-1.49-1.49h0m-9.5,14.65l-9.71-11.68h9.73v11.68Zm8.02,9.6l-5.04-6.04V8.11h5.04V29.4Z"/>
	<path d="M122.72,6.63c0-.82-.67-1.49-1.49-1.49h-20.09c-.39,0-.75,.16-1.03,.43-.3,.27-.47,.65-.46,1.06v26.89c-.02,.4,.15,.79,.46,1.06,.28,.26,.65,.41,1.03,.42h20.09c.82,.08,1.54-.52,1.62-1.34,.08-.82-.52-1.54-1.34-1.62-.09,0-.19,0-.28,0h-15.7l14.37-10.78s.09-.06,.12-.11c.48-.44,.6-1.15,.29-1.73-.22-.44-.65-.75-1.14-.8h-6.22l-8.72-10.49h16.99c.82,0,1.49-.67,1.49-1.49h0m-8.18,14.92l-11.98,8.99v-8.99h11.98Zm-5.36-2.96h-6.62v-7.86l6.62,7.86Z"/>
</g>
<g id="b">
	<path d="M176.5,38.06V2.19c0-1.12,.87-2.04,1.98-2.11h8.88c.65,0,1.26,.28,1.67,.78,.36,.54,.44,1.22,.23,1.84l-8.9,26.6v8.76c0,1.05-.83,1.91-1.88,1.94h0c-1.07,.02-1.96-.83-1.98-1.9,0-.01,0-.03,0-.04Zm3.86-33.99v12.66l4.22-12.66h-4.22Z"/>
	<path d="M234.99,2.19V38.06c-.11,1.1-1.1,1.9-2.2,1.79-.94-.1-1.69-.84-1.79-1.79V10.46l-14.18,28.42c-.33,.66-1.01,1.08-1.75,1.08-.32,0-.64-.08-.93-.23-.37-.17-.67-.47-.84-.84l-14.18-28.42v27.6c-.11,1.1-1.1,1.9-2.2,1.79-.94-.1-1.69-.84-1.79-1.79V2.19c0-1.12,.87-2.04,1.98-2.11h23.99c.28,0,.55,.06,.78,.21,.99,.41,1.47,1.54,1.06,2.53,0,.02-.02,.04-.03,.06l-5.63,11.16,3.76,7.51L231.23,1.12c.48-.98,1.67-1.39,2.65-.92,.75,.37,1.19,1.16,1.1,1.99Zm-16.16,23.82l-10.93-21.94h-7.6l14.77,29.54,3.76-7.6Zm-3.76-16.41l2.78-5.53h-5.49l2.7,5.53Z"/>
	</g>
</svg>